<svg xmlns="http://www.w3.org/2000/svg" width="1600" height="900" viewBox="0 0 1600 900" role="img" aria-labelledby="title desc">
  <title id="title">OGPass cover</title>
  <desc id="desc">A bright sky and meadow cover for OGPass, a private ai memory passport on 0G.</desc>
  <defs>
    <linearGradient id="sky" x1="0" x2="0" y1="0" y2="1">
      <stop offset="0" stop-color="#9FD3FF"/>
      <stop offset="0.68" stop-color="#C5E5FF"/>
      <stop offset="1" stop-color="#F4FBFF"/>
    </linearGradient>
    <filter id="shadow" x="-20%" y="-20%" width="140%" height="140%">
      <feDropShadow dx="0" dy="24" stdDeviation="24" flood-color="#050505" flood-opacity="0.16"/>
    </filter>
  </defs>
  <rect width="1600" height="900" fill="url(#sky)"/>
  <g opacity="0.78" fill="#F4FBFF">
    <ellipse cx="206" cy="184" rx="160" ry="52"/>
    <ellipse cx="306" cy="150" rx="94" ry="40"/>
    <ellipse cx="1232" cy="252" rx="184" ry="58"/>
    <ellipse cx="1338" cy="216" rx="104" ry="42"/>
    <ellipse cx="786" cy="130" rx="118" ry="36"/>
  </g>
  <path d="M0 704 C178 622 310 752 494 650 C692 540 817 698 1008 622 C1204 544 1382 612 1600 520 L1600 900 L0 900 Z" fill="#2F6D49"/>
  <path d="M0 746 C178 668 348 772 532 692 C724 609 868 726 1058 672 C1254 616 1410 664 1600 604 L1600 900 L0 900 Z" fill="#8EBF68"/>
  <g filter="url(#shadow)">
    <rect x="92" y="82" width="1416" height="656" rx="76" fill="#A9D8FF" opacity="0.82"/>
    <rect x="134" y="128" width="352" height="100" rx="50" fill="#FFFFFF"/>
    <g transform="translate(166 150) scale(0.52)">
      <circle cx="76" cy="76" r="62" fill="#FFCF3F"/>
      <path d="M76 8 C89 37 89 57 76 74 C63 57 63 37 76 8Z" fill="#050505"/>
      <path d="M144 76 C115 89 95 89 78 76 C95 63 115 63 144 76Z" fill="#050505"/>
      <path d="M76 144 C63 115 63 95 76 78 C89 95 89 115 76 144Z" fill="#050505"/>
      <path d="M8 76 C37 63 57 63 74 76 C57 89 37 89 8 76Z" fill="#050505"/>
      <path d="M125 27 C113 59 99 72 80 75 C83 56 96 42 125 27Z" fill="#050505"/>
      <path d="M125 125 C96 110 83 96 80 77 C99 80 113 93 125 125Z" fill="#050505"/>
      <path d="M27 125 C39 93 53 80 72 77 C69 96 56 110 27 125Z" fill="#050505"/>
      <path d="M27 27 C56 42 69 56 72 75 C53 72 39 59 27 27Z" fill="#050505"/>
      <circle cx="76" cy="76" r="13" fill="#20C86B"/>
    </g>
    <text x="270" y="197" fill="#050505" font-family="Georgia, 'Times New Roman', serif" font-size="58" font-weight="700" letter-spacing="0">OGPass</text>
    <text x="172" y="364" fill="#050505" font-family="Georgia, 'Times New Roman', serif" font-size="108" font-weight="700" letter-spacing="0">
      <tspan x="172" dy="0">private memory</tspan>
      <tspan x="172" dy="106">for your ai agent</tspan>
    </text>
    <text x="174" y="632" fill="#050505" opacity="0.66" font-family="Inter, Arial, sans-serif" font-size="34" font-weight="800" letter-spacing="0">ERC-7857 identity. encrypted 0G Storage. wallet-signed 0G Compute.</text>
    <g transform="translate(1124 168)">
      <rect width="254" height="356" rx="44" fill="#FFFFFF"/>
      <rect x="32" y="36" width="190" height="114" rx="28" fill="#EDF5F7"/>
      <circle cx="84" cy="93" r="28" fill="#20C86B"/>
      <rect x="32" y="188" width="190" height="20" rx="10" fill="#050505" opacity="0.18"/>
      <rect x="32" y="230" width="150" height="20" rx="10" fill="#050505" opacity="0.18"/>
      <rect x="32" y="276" width="164" height="46" rx="23" fill="#050505"/>
      <circle cx="174" cy="299" r="28" fill="#FFCF3F"/>
    </g>
  </g>
</svg>
