<svg xmlns="http://www.w3.org/2000/svg" width="512" height="512" viewBox="0 0 512 512" role="img" aria-labelledby="title desc">
  <title id="title">OGPass icon</title>
  <desc id="desc">A black organic passport flower mark on a sky blue and meadow green field.</desc>
  <defs>
    <linearGradient id="sky" x1="0" x2="0" y1="0" y2="1">
      <stop offset="0" stop-color="#A9D8FF"/>
      <stop offset="0.72" stop-color="#C5E5FF"/>
      <stop offset="1" stop-color="#8EBF68"/>
    </linearGradient>
    <filter id="soft" x="-20%" y="-20%" width="140%" height="140%">
      <feDropShadow dx="0" dy="18" stdDeviation="20" flood-color="#050505" flood-opacity="0.18"/>
    </filter>
  </defs>
  <rect width="512" height="512" rx="112" fill="url(#sky)"/>
  <path d="M0 408 C92 365 138 424 222 386 C306 348 370 362 512 321 L512 512 L0 512 Z" fill="#2F6D49" opacity="0.92"/>
  <path d="M0 432 C86 394 160 440 244 402 C336 360 399 386 512 353 L512 512 L0 512 Z" fill="#8EBF68"/>
  <g filter="url(#soft)">
    <rect x="94" y="86" width="324" height="324" rx="78" fill="#FFFFFF"/>
    <circle cx="256" cy="248" r="122" fill="#FFCF3F"/>
    <path d="M256 126 C278 174 278 206 256 238 C234 206 234 174 256 126Z" fill="#050505"/>
    <path d="M386 248 C338 270 306 270 274 248 C306 226 338 226 386 248Z" fill="#050505"/>
    <path d="M256 370 C234 322 234 290 256 258 C278 290 278 322 256 370Z" fill="#050505"/>
    <path d="M126 248 C174 226 206 226 238 248 C206 270 174 270 126 248Z" fill="#050505"/>
    <path d="M348 156 C330 206 308 230 268 242 C280 202 304 180 348 156Z" fill="#050505"/>
    <path d="M348 340 C304 316 280 294 268 254 C308 266 330 290 348 340Z" fill="#050505"/>
    <path d="M164 340 C182 290 204 266 244 254 C232 294 208 316 164 340Z" fill="#050505"/>
    <path d="M164 156 C208 180 232 202 244 242 C204 230 182 206 164 156Z" fill="#050505"/>
    <circle cx="256" cy="248" r="24" fill="#20C86B"/>
  </g>
</svg>
