<svg xmlns="http://www.w3.org/2000/svg" width="1400" height="420" viewBox="0 0 1400 420" role="img" aria-labelledby="title desc">
  <title id="title">OGPass logo</title>
  <desc id="desc">OGPass wordmark with an organic passport flower mark.</desc>
  <defs>
    <linearGradient id="sky" x1="0" x2="1" y1="0" y2="1">
      <stop offset="0" stop-color="#A9D8FF"/>
      <stop offset="1" stop-color="#C5E5FF"/>
    </linearGradient>
    <filter id="shadow" x="-20%" y="-20%" width="140%" height="140%">
      <feDropShadow dx="0" dy="16" stdDeviation="18" flood-color="#050505" flood-opacity="0.14"/>
    </filter>
  </defs>
  <rect width="1400" height="420" rx="96" fill="url(#sky)"/>
  <path d="M0 326 C183 270 276 361 433 300 C590 239 756 350 939 292 C1091 244 1223 272 1400 216 L1400 420 L0 420 Z" fill="#8EBF68"/>
  <g filter="url(#shadow)">
    <rect x="86" y="86" width="1228" height="248" rx="124" fill="#FFFFFF"/>
    <g transform="translate(152 108)">
      <circle cx="102" cy="102" r="86" fill="#FFCF3F"/>
      <path d="M102 8 C119 48 119 73 102 98 C85 73 85 48 102 8Z" fill="#050505"/>
      <path d="M196 102 C156 119 131 119 106 102 C131 85 156 85 196 102Z" fill="#050505"/>
      <path d="M102 196 C85 156 85 131 102 106 C119 131 119 156 102 196Z" fill="#050505"/>
      <path d="M8 102 C48 85 73 85 98 102 C73 119 48 119 8 102Z" fill="#050505"/>
      <path d="M169 35 C154 77 135 94 107 99 C112 71 129 52 169 35Z" fill="#050505"/>
      <path d="M169 169 C129 152 112 133 107 105 C135 110 154 127 169 169Z" fill="#050505"/>
      <path d="M35 169 C50 127 69 110 97 105 C92 133 75 152 35 169Z" fill="#050505"/>
      <path d="M35 35 C75 52 92 71 97 99 C69 94 50 77 35 35Z" fill="#050505"/>
      <circle cx="102" cy="102" r="18" fill="#20C86B"/>
    </g>
    <text x="400" y="256" fill="#050505" font-family="Georgia, 'Times New Roman', serif" font-size="168" font-weight="700" letter-spacing="0">OGPass</text>
  </g>
</svg>
